<?xml version="1.0" encoding="UTF-8"?>
<svg id="Layer_1" data-name="Layer 1" xmlns="http://www.w3.org/2000/svg" viewBox="0 0 492.08 530.83">
  <defs>
    <style>
      .cls-1 {
        fill: #495aa8;
      }

      .cls-2 {
        fill: #231f20;
      }
    </style>
  </defs>
  <g>
    <polygon class="cls-2" points="342.96 530.83 342.96 290.75 90.34 290.75 90.34 530.83 0 530.83 0 0 90.34 0 90.34 209.46 342.96 209.46 342.96 0 433.65 0 433.65 530.83 342.96 530.83"/>
    <path class="cls-2" d="m423.28,520.46h-69.96v-240.08H79.97v240.08H10.37V10.37h69.6v209.46h273.36V10.37h69.96v510.09Z"/>
  </g>
  <g>
    <polygon class="cls-1" points="401.39 530.83 401.39 290.75 148.77 290.75 148.77 530.83 58.43 530.83 58.43 0 148.77 0 148.77 209.47 401.39 209.47 401.39 0 492.08 0 492.08 530.83 401.39 530.83"/>
    <path class="cls-1" d="m481.71,520.46h-69.96v-240.08H138.4v240.08h-69.6V10.37h69.6v209.47h273.36V10.37h69.96v510.09Z"/>
  </g>
  <rect class="cls-2" x="148.27" y="168.5" width="204.56" height="40.47"/>
</svg>